<svg width="280" height="280" viewBox="0 0 280 280" fill="none" xmlns="http://www.w3.org/2000/svg">
<circle cx="140" cy="140" r="140" fill="black"/>
<path d="M68 225C63.05 225 58.814 223.146 55.292 219.439C51.77 215.732 50.006 211.269 50 206.053V101.842C50 96.6316 51.764 92.1726 55.292 88.4653C58.82 84.7579 63.056 82.901 68 82.8947H104V63.9474C104 58.7368 105.764 54.2779 109.292 50.5705C112.82 46.8632 117.056 45.0063 122 45H158C162.95 45 167.189 46.8568 170.717 50.5705C174.245 54.2842 176.006 58.7432 176 63.9474V82.8947H212C216.95 82.8947 221.189 84.7516 224.717 88.4653C228.245 92.1789 230.006 96.6379 230 101.842V206.053C230 211.263 228.239 215.725 224.717 219.439C221.195 223.153 216.956 225.006 212 225H68ZM122 82.8947H158V63.9474H122V82.8947ZM117.5 206.053V177.632C121.4 176.684 124.625 174.515 127.175 171.123C129.725 167.732 131 163.822 131 159.395V120.789H122V156.553H115.25V120.789H106.25V156.553H99.5V120.789H90.5V159.395C90.5 163.816 91.775 167.725 94.325 171.123C96.875 174.521 100.1 176.691 104 177.632V206.053H117.5ZM176 206.053V185.211C179.9 183 183.125 179.094 185.675 173.492C188.225 167.889 189.5 161.375 189.5 153.947C189.5 144.789 187.511 136.974 183.533 130.5C179.555 124.026 174.794 120.789 169.25 120.789C163.55 120.789 158.75 124.026 154.85 130.5C150.95 136.974 149 144.789 149 153.947C149 161.211 150.275 167.646 152.825 173.255C155.375 178.863 158.6 182.848 162.5 185.211V206.053H176Z" fill="white"/>
</svg>
